<?xml version="1.0" standalone="no"?>
<!DOCTYPE svg PUBLIC "-//W3C//DTD SVG 20010904//EN"
 "http://www.w3.org/TR/2001/REC-SVG-20010904/DTD/svg10.dtd">
<svg version="1.0" xmlns="http://www.w3.org/2000/svg"
 width="192.000000pt" height="192.000000pt" viewBox="0 0 192.000000 192.000000"
 preserveAspectRatio="xMidYMid meet">

<g transform="translate(0.000000,192.000000) scale(0.100000,-0.100000)"
fill="#000000" stroke="none">
<path d="M584 1785 c-428 -219 -474 -245 -480 -270 -3 -13 -1 -32 4 -41 11
-20 641 -352 684 -361 l28 -5 2 -232 c3 -197 5 -231 18 -231 13 0 16 34 20
229 l5 230 25 6 c57 16 450 221 450 235 0 8 -5 15 -10 15 -6 0 -109 -49 -230
-110 -180 -90 -228 -110 -262 -109 -36 0 -101 30 -373 173 -190 100 -330 179
-330 187 0 8 140 86 330 186 273 142 337 172 373 173 35 0 99 -29 392 -175
296 -148 354 -180 370 -208 19 -30 20 -51 20 -376 0 -332 -1 -345 -21 -378
-18 -30 -68 -58 -370 -209 -278 -139 -357 -174 -389 -174 -32 0 -111 36 -390
175 -296 148 -354 180 -370 208 -18 29 -20 51 -20 255 0 215 -1 222 -20 222
-19 0 -20 -7 -20 -209 0 -213 5 -250 42 -304 14 -20 116 -76 371 -204 329
-165 356 -177 407 -177 51 0 78 12 408 177 325 164 354 181 380 219 l27 41 3
331 c4 346 0 382 -40 439 -26 36 -698 375 -762 383 -40 6 -57 -1 -272 -111z"/>
</g>
</svg>
